<svg width="60" height="60" viewBox="0 0 60 60" fill="none" xmlns="http://www.w3.org/2000/svg">
<path d="M59.2517 21.144C59.6649 21.144 60 20.809 60 20.3957C60 19.9823 59.6649 19.6474 59.2517 19.6474H47.7784V12.7494H59.2517C59.6649 12.7494 60 12.4144 60 12.0011C60 11.5878 59.6649 11.2528 59.2517 11.2528H47.7784V1.73606C47.7784 1.32273 47.4433 0.987762 47.0301 0.987762C46.6169 0.987762 46.2818 1.32273 46.2818 1.73606V11.2527H13.7182V1.73606C13.7182 1.32273 13.3833 0.987762 12.9699 0.987762C12.5566 0.987762 12.2216 1.32273 12.2216 1.73606V11.2527H0.748299C0.334966 11.2527 0 11.5876 0 12.001C0 12.4143 0.334966 12.7493 0.748299 12.7493H12.2216V19.6472H0.748299C0.334966 19.6472 0 19.9822 0 20.3955C0 20.8088 0.334966 21.1438 0.748299 21.1438H12.2216V44.142H0.748299C0.334966 44.142 0 44.477 0 44.8903C0 45.3037 0.334966 45.6386 0.748299 45.6386H12.2216V58.2638C12.2216 58.6771 12.5566 59.0121 12.9699 59.0121C13.3833 59.0121 13.7182 58.6771 13.7182 58.2638V45.6386H46.2818V58.2638C46.2818 58.6771 46.6169 59.0121 47.0301 59.0121C47.4433 59.0121 47.7784 58.6771 47.7784 58.2638V45.6386H59.2517C59.6649 45.6386 60 45.3037 60 44.8903C60 44.477 59.6649 44.142 59.2517 44.142H47.7784V21.144H59.2517ZM46.2818 12.7493V19.6472H23.0918L25.6397 12.7493H46.2818ZM13.7182 12.7493H24.0444L21.4965 19.6472H13.7184V12.7493H13.7182ZM20.9435 21.144L13.7182 40.7049V21.144H20.9435ZM22.5667 44.142L24.3422 38.9901H35.4461L37.2212 44.142H22.5667ZM46.2818 44.142H38.8042L36.6872 37.998C36.5831 37.6961 36.2989 37.4935 35.9797 37.4935H23.8086C23.4893 37.4935 23.2052 37.6961 23.1011 37.998L20.9837 44.142H14.0439L22.5389 21.1438H28.8576L25.1396 31.9686C25.0611 32.1971 25.0978 32.4497 25.2382 32.6464C25.3788 32.8431 25.6056 32.9599 25.8473 32.9599H33.9407C34.1823 32.9599 34.4093 32.8431 34.5498 32.6464C34.6902 32.4497 34.7271 32.1971 34.6486 31.9686L30.9312 21.1438H46.2818V44.142ZM29.8943 22.7328L32.8925 31.4634H26.8956L29.8943 22.7328Z" fill="#414141"/>
</svg>
