<svg width="111" height="60" viewBox="0 0 111 60" fill="none" xmlns="http://www.w3.org/2000/svg">
<path d="M18.082 52.8199V56.6728H63.2295V47.8722H65.6058V59.0336H15.7057V52.8199H18.082Z" fill="#7B4A2A"/>
<path d="M33.8243 7.25488H65.6057V16.274H63.2294V9.61604H33.8243V7.25488Z" fill="#7B4A2A"/>
<path fill-rule="evenodd" clip-rule="evenodd" d="M15.2447 38.4642C15.4476 37.9568 15.5495 37.4093 15.5495 36.8241C15.5495 36.2389 15.4476 35.6919 15.2447 35.1841C15.0418 34.6755 14.7355 34.2032 14.3273 33.7683C13.5107 32.8977 12.5009 32.462 11.2997 32.462C10.7125 32.462 10.1676 32.5707 9.66673 32.7878C9.1651 33.0053 8.70413 33.3326 8.28496 33.7694C7.8734 34.1987 7.56406 34.6683 7.35809 35.1777C7.15287 35.6854 7.04989 36.2348 7.04989 36.8241C7.04989 37.4135 7.15287 37.9628 7.35809 38.471C7.56368 38.9791 7.8734 39.4492 8.28496 39.8792C8.70375 40.3153 9.16472 40.643 9.66673 40.8604C10.1676 41.0775 10.7125 41.1863 11.2997 41.1863C11.9016 41.1863 12.455 41.0775 12.9573 40.8604C13.4613 40.6434 13.9184 40.316 14.3273 39.88C14.7351 39.445 15.0418 38.9727 15.2447 38.4642ZM4.86893 44.546H6.97806L7.0001 44.6366C7.08865 45.0085 7.22926 45.3619 7.42117 45.6941C7.61346 46.0271 7.85858 46.3428 8.15651 46.6388C8.58214 47.0612 9.04995 47.3787 9.5588 47.5898C10.0677 47.8005 10.6202 47.9062 11.2153 47.9062C11.8104 47.9062 12.3626 47.8005 12.8715 47.5898C13.3803 47.3787 13.8481 47.0612 14.2737 46.6388C14.6998 46.2155 15.019 45.7508 15.231 45.2452C15.4431 44.7401 15.5495 44.1911 15.5495 43.5999V41.2516L15.4305 41.3841C14.8328 42.0486 14.1658 42.5477 13.4309 42.8807C12.6936 43.2144 11.8891 43.3817 11.0177 43.3817C10.1368 43.3817 9.32509 43.2148 8.58404 42.8814C7.84451 42.5481 7.17377 42.0482 6.57524 41.3822C5.41845 40.0906 4.83967 38.571 4.83967 36.8241C4.83967 35.9516 4.98484 35.1346 5.27404 34.3746C5.56324 33.6146 5.99722 32.9113 6.57524 32.266C7.17377 31.6 7.84413 31.1002 8.58404 30.7672C9.32509 30.4334 10.1368 30.2666 11.0177 30.2666C11.8606 30.2666 12.651 30.4338 13.3887 30.7676C14.1233 31.1006 14.8043 31.5997 15.4302 32.2641L15.5495 32.3963V30.5463H17.7593V43.5999C17.7593 44.4924 17.5986 45.3223 17.2778 46.0883C16.9575 46.8536 16.4764 47.5551 15.8364 48.1908C15.1964 48.8266 14.49 49.3046 13.7197 49.6232C12.9486 49.9415 12.1133 50.1016 11.2153 50.1016C10.3169 50.1016 9.48165 49.9415 8.71059 49.6232C7.94066 49.305 7.23458 48.827 6.59386 48.1908C6.08805 47.688 5.68104 47.1439 5.37474 46.5595C5.06731 45.975 4.86019 45.3491 4.75227 44.6827L4.73022 44.546H4.86893ZM36.0958 34.1273C36.4287 34.8749 36.9068 35.6813 36.9068 36.5444V37.6978H26.0248C26.1206 38.1595 26.2832 38.5827 26.5113 38.9656C26.7624 39.3873 27.0942 39.7633 27.5054 40.0925C27.9253 40.4297 28.3688 40.6826 28.8351 40.8506C29.2999 41.0179 29.7909 41.1021 30.3062 41.1021C30.6546 41.1021 30.9951 41.0621 31.325 40.9835C31.656 40.9042 31.9805 40.7842 32.2963 40.6252C32.611 40.4663 32.9013 40.276 33.1639 40.0559C33.4277 39.8354 33.6652 39.5836 33.875 39.3019L33.9103 39.2544H36.4063L36.3326 39.4194C36.065 40.0181 35.7283 40.5546 35.3251 41.0266C34.9212 41.4993 34.448 41.9096 33.9069 42.257C33.368 42.6028 32.8227 42.8629 32.2728 43.0366C31.721 43.2103 31.1635 43.2979 30.6022 43.2979C30.047 43.2979 29.5298 43.2548 29.0521 43.1699C28.5744 43.0846 28.1355 42.9551 27.7372 42.7837C27.3397 42.6123 26.9665 42.4103 26.6188 42.1785C26.2699 41.9463 25.9446 41.682 25.6437 41.3879C24.9984 40.7562 24.5135 40.0544 24.1905 39.2842C23.8674 38.514 23.7055 37.6747 23.7055 36.7682C23.7055 35.8663 23.8674 35.0285 24.1905 34.2553C24.5135 33.4829 24.998 32.7753 25.6429 32.135C26.2874 31.4947 26.9996 31.0133 27.7771 30.6924C28.5546 30.3711 29.3987 30.2107 30.3062 30.2107C31.1878 30.2107 32.0136 30.3651 32.7816 30.6739C33.5485 30.9828 34.2588 31.446 34.9113 32.0633C35.5752 32.6919 35.7629 33.3809 36.0958 34.1273ZM26.0583 35.7825H34.5541C34.442 35.3272 34.2683 34.9077 34.0346 34.526C33.7769 34.1039 33.4433 33.7237 33.0347 33.3866C32.6365 33.0593 32.2097 32.8135 31.7563 32.6504C31.303 32.488 30.8192 32.4061 30.3062 32.4061C29.5233 32.4061 28.8241 32.5817 28.2092 32.9324C27.5917 33.2846 27.0551 33.8147 26.6009 34.5215C26.4638 34.7344 26.3471 34.9587 26.2517 35.1909C26.1742 35.3815 26.1092 35.579 26.0583 35.7825ZM44.2621 32.602H41.1619V30.5463H44.2621V25.7587H46.472V30.5463H49.5441V32.602H46.472V43.1019H44.2621V32.602ZM65.5389 41.2131V43.1019H63.3287V21.8666H65.5389V32.4352L65.6829 32.2672C66.2795 31.6008 66.9461 31.1009 67.6818 30.7676C68.4191 30.4338 69.2255 30.2666 70.0988 30.2666C70.9721 30.2666 71.7777 30.4338 72.5153 30.7676C73.2511 31.1009 73.9176 31.6008 74.5131 32.266C75.6699 33.5576 76.2483 35.0776 76.2483 36.8241C76.2483 37.6966 76.1035 38.5136 75.8143 39.2733C75.5255 40.0336 75.0908 40.737 74.5131 41.3822C73.9176 42.0474 73.2514 42.5469 72.5153 42.8807C71.7777 43.2144 70.9721 43.3817 70.0988 43.3817C69.2255 43.3817 68.4191 43.2144 67.6818 42.8807C66.9457 42.5469 66.2795 42.0474 65.684 41.3822L65.5389 41.2131ZM73.7337 38.4642C73.9366 37.9564 74.0385 37.4089 74.0385 36.8241C74.0385 36.2389 73.9366 35.6919 73.7333 35.1841C73.5304 34.6751 73.2241 34.2032 72.8163 33.7683C71.9996 32.8977 70.9899 32.462 69.7887 32.462C69.1867 32.462 68.6338 32.5707 68.1306 32.7878C67.6271 33.0045 67.1699 33.3322 66.761 33.7683C65.9463 34.6366 65.5389 35.656 65.5389 36.8241C65.5389 37.4089 65.6407 37.9564 65.8437 38.4642C66.0473 38.9727 66.3533 39.445 66.761 39.88C67.1703 40.316 67.6271 40.6434 68.1303 40.8604C68.6338 41.0775 69.1871 41.1863 69.7887 41.1863C70.3906 41.1863 70.9436 41.0775 71.4463 40.8604C71.9502 40.6434 72.4074 40.316 72.8163 39.88C73.2241 39.4454 73.5304 38.9727 73.7337 38.4642ZM92.0185 38.4166C92.2328 37.9092 92.3404 37.3591 92.3404 36.7682C92.3404 35.5688 91.9102 34.5411 91.0506 33.6875C90.6204 33.2597 90.1465 32.9388 89.6304 32.7255C89.1151 32.5129 88.5542 32.4061 87.9496 32.4061C86.7423 32.4061 85.7082 32.8335 84.8486 33.6875C84.4184 34.1149 84.0954 34.5857 83.8807 35.0984C83.6667 35.6103 83.5588 36.1676 83.5588 36.7682C83.5588 37.3591 83.6667 37.9092 83.8807 38.4166C84.0954 38.9248 84.4188 39.3941 84.8486 39.8211C85.2784 40.2481 85.7527 40.5694 86.2691 40.7823C86.7845 40.9952 87.3454 41.1021 87.9496 41.1021C88.5542 41.1021 89.1151 40.9952 89.6304 40.7823C90.1465 40.5694 90.6204 40.2488 91.0506 39.8211C91.4812 39.3933 91.8042 38.9244 92.0185 38.4166ZM94.0653 34.2553C94.3887 35.0285 94.5502 35.8663 94.5502 36.7682C94.5502 37.6747 94.3887 38.514 94.0653 39.2842C93.7423 40.0544 93.2574 40.7562 92.6121 41.3879C91.9634 42.0233 91.2486 42.5009 90.4711 42.8195C89.6935 43.1382 88.8525 43.2979 87.9496 43.2979C87.0471 43.2979 86.2061 43.1382 85.4282 42.8195C84.651 42.5013 83.9369 42.0237 83.2871 41.3879C82.6418 40.7562 82.1569 40.0544 81.8339 39.2842C81.5109 38.514 81.349 37.6747 81.349 36.7682C81.349 35.8663 81.5109 35.0285 81.8339 34.2553C82.1569 33.4829 82.6418 32.7753 83.2863 32.135C83.9309 31.4947 84.643 31.0133 85.4206 30.6924C86.1985 30.3711 87.0421 30.2107 87.9496 30.2107C88.8575 30.2107 89.7008 30.3711 90.479 30.6924C91.2562 31.0126 91.968 31.4943 92.6129 32.135C93.2581 32.7761 93.7431 33.4832 94.0653 34.2553ZM109.8 43.1019H107.227L104.192 38.4132L101.156 43.1019H98.3562L102.779 36.7966L98.3554 30.5463H101.155L104.192 35.1811L107.228 30.5463H110.027L105.604 36.8241L110.027 43.1019H109.8Z" fill="#0F2800"/>
<path d="M28.8951 15.3978L29.3029 15.5809L28.824 16.6357L29.0657 16.7415C27.4727 20.3194 25.012 22.3816 22.1809 23.2522C19.8384 23.9726 17.2675 23.8544 14.7487 23.0929C12.2892 22.3491 9.87304 20.9884 7.77531 19.2C3.80635 15.8168 0.929195 10.8661 0.973278 5.6039C0.978598 4.9549 1.51291 4.43238 2.16617 4.43766C2.32388 4.43879 2.47399 4.47051 2.6108 4.52714C11.1404 8.04548 20.6311 11.5261 28.8959 15.3936L28.8951 15.3978ZM21.4843 21.0017C23.3889 20.4157 25.0937 19.0973 26.3516 16.871L3.46015 7.42668C3.99864 11.2697 6.29816 14.8379 9.31669 17.4108C11.1758 18.9958 13.2963 20.1952 15.4358 20.8423C17.5164 21.4713 19.6115 21.5778 21.4843 21.0017Z" fill="#3B7A17"/>
<path d="M26.9095 16.1547C27.7429 13.8057 27.803 11.7899 27.2861 10.1114C26.6777 8.13607 25.2477 6.57568 23.3297 5.45512C21.3251 4.28323 18.7892 3.58666 16.0762 3.38543C11.6353 3.05508 6.77248 4.05481 2.99847 6.4609L1.71741 4.47804C5.9368 1.78841 11.3388 0.66824 16.2525 1.0337C19.3091 1.26098 22.1995 2.06553 24.5272 3.4262C26.9418 4.83746 28.7553 6.84411 29.5514 9.42878C30.2123 11.5747 30.1587 14.0858 29.1463 16.9385L26.9095 16.1547Z" fill="#3B7A17"/>
<path d="M24.2038 15.42L12.3463 21.4362L11.2693 19.3431L23.1268 13.3269L24.2038 15.42Z" fill="#3B7A17"/>
<path d="M22.6976 15.1874L18.3513 3.10828L20.5881 2.31506L24.9345 14.3946L22.6976 15.1874Z" fill="#3B7A17"/>
<path d="M5.4397 14.2455L13.5942 10.4972L10.4108 3.1642L12.5925 2.23242L16.6899 11.6707L6.43346 16.385L5.4397 14.2455Z" fill="#3B7A17"/>
<path d="M74.8878 17.0589C68.6949 19.7784 60.3169 21.4671 51.2925 21.5064C43.2847 21.5411 34.7543 20.2794 26.7772 17.2885L27.6125 15.0844C35.3114 17.9707 43.548 19.1886 51.283 19.155C59.9685 19.1173 68.009 17.5018 73.932 14.9009L74.8878 17.0589Z" fill="#3B7A17"/>
</svg>
